<svg width="326" height="57" viewBox="0 0 326 57" fill="none" xmlns="http://www.w3.org/2000/svg">
<g clip-path="url(#clip0_3_1220)">
<path d="M7.19358 55.9124H0.0385742V18.7954H6.43241L7.11741 23.6531C8.08164 21.8313 9.52779 20.3894 11.4563 19.3268C13.4351 18.264 15.6936 17.7329 18.2305 17.7329C24.0155 17.7329 27.9481 20.2375 30.0289 25.2474C30.8916 22.9195 32.3885 21.0979 34.5197 19.7821C36.6509 18.4157 39.1627 17.7329 42.0554 17.7329C46.3178 17.7329 49.6669 18.9725 52.1027 21.452C54.5386 23.9316 55.7567 27.322 55.7567 31.623V55.9124H48.7536V33.369C48.7536 30.4844 47.9923 28.2326 46.47 26.6134C44.9985 24.9943 42.9943 24.1846 40.457 24.1846C37.7674 24.1846 35.5854 25.0702 33.9108 26.8412C32.2871 28.6123 31.475 30.9652 31.475 33.9004V55.9124H24.3962V33.2929C24.3962 30.4087 23.6605 28.1822 22.1885 26.6134C20.717 25.0448 18.7128 24.2607 16.1755 24.2607C13.4351 24.2607 11.2532 25.1459 9.62932 26.917C8.00549 28.6376 7.19358 30.9652 7.19358 33.9004V55.9124Z" fill="white"/>
<path d="M74.2775 56.8232C70.3193 56.8232 67.1986 55.8109 64.9148 53.7871C62.682 51.7122 61.5659 48.9798 61.5659 45.5894C61.5659 42.1992 62.7582 39.4918 65.1432 37.4678C67.5791 35.3928 71.0044 34.1787 75.419 33.8244L87.1413 32.9136V31.8508C87.1413 26.2338 84.2232 23.4257 78.3879 23.4257C75.3936 23.4257 73.0594 24.0581 71.3848 25.3232C69.7609 26.5881 68.949 28.3341 68.949 30.5605H62.7074C62.7074 26.7149 64.1536 23.6277 67.0462 21.3003C69.9893 18.9218 73.8713 17.7329 78.6921 17.7329C83.4622 17.7329 87.2175 18.9979 89.9574 21.5277C92.7486 24.0581 94.1439 27.752 94.1439 32.6097V55.9124H88.0548L87.2935 49.9158C86.3294 52.0411 84.6547 53.7364 82.2698 55.0014C79.9354 56.216 77.2714 56.8232 74.2775 56.8232ZM76.3325 51.2821C79.7324 51.2821 82.3967 50.27 84.3248 48.2462C86.2532 46.1713 87.2175 43.3881 87.2175 39.8966V37.9232L77.7028 38.6821C71.7655 39.2388 68.797 41.4653 68.797 45.3616C68.797 47.2845 69.4567 48.7518 70.776 49.7641C72.0955 50.7762 73.9475 51.2821 76.3325 51.2821Z" fill="white"/>
<path d="M108.925 55.9124H101.77V18.7954H108.163L108.848 23.6531C109.813 21.8313 111.259 20.3894 113.187 19.3268C115.166 18.264 117.424 17.7329 119.961 17.7329C125.746 17.7329 129.679 20.2375 131.76 25.2474C132.622 22.9195 134.119 21.0979 136.251 19.7821C138.382 18.4157 140.894 17.7329 143.786 17.7329C148.049 17.7329 151.398 18.9725 153.834 21.452C156.269 23.9316 157.487 27.322 157.487 31.623V55.9124H150.484V33.369C150.484 30.4844 149.723 28.2326 148.201 26.6134C146.729 24.9943 144.725 24.1846 142.187 24.1846C139.498 24.1846 137.316 25.0702 135.641 26.8412C134.018 28.6123 133.206 30.9652 133.206 33.9004V55.9124H126.127V33.2929C126.127 30.4087 125.391 28.1822 123.92 26.6134C122.448 25.0448 120.443 24.2607 117.906 24.2607C115.166 24.2607 112.984 25.1459 111.36 26.917C109.736 28.6376 108.925 30.9652 108.925 33.9004V55.9124Z" fill="white"/>
<path d="M172.277 55.9124H165.122V18.7954H171.516L172.201 23.6531C173.165 21.8313 174.611 20.3894 176.54 19.3268C178.519 18.264 180.777 17.7329 183.314 17.7329C189.099 17.7329 193.032 20.2375 195.112 25.2474C195.975 22.9195 197.472 21.0979 199.603 19.7821C201.735 18.4157 204.247 17.7329 207.138 17.7329C211.402 17.7329 214.751 18.9725 217.186 21.452C219.622 23.9316 220.839 27.322 220.839 31.623V55.9124H213.838V33.369C213.838 30.4844 213.076 28.2326 211.553 26.6134C210.082 24.9943 208.078 24.1846 205.541 24.1846C202.85 24.1846 200.669 25.0702 198.994 26.8412C197.371 28.6123 196.559 30.9652 196.559 33.9004V55.9124H189.48V33.2929C189.48 30.4087 188.744 28.1822 187.272 26.6134C185.801 25.0448 183.796 24.2607 181.259 24.2607C178.519 24.2607 176.337 25.1459 174.713 26.917C173.089 28.6376 172.277 30.9652 172.277 33.9004V55.9124Z" fill="white"/>
<path d="M231.519 51.3588C227.866 47.7157 226.041 43.035 226.041 37.3171C226.041 31.599 227.866 26.9179 231.519 23.2748C235.174 19.6313 239.817 17.8096 245.45 17.8096C251.03 17.8096 255.649 19.6313 259.3 23.2748C262.957 26.9179 264.784 31.599 264.784 37.3171C264.784 43.035 262.957 47.7157 259.3 51.3588C255.649 55.0024 251.03 56.8242 245.45 56.8242C239.817 56.8242 235.174 55.0024 231.519 51.3588ZM236.617 27.8289C234.388 30.258 233.269 33.4204 233.269 37.3171C233.269 41.2134 234.388 44.3758 236.617 46.8047C238.904 49.2339 241.847 50.4483 245.45 50.4483C249.053 50.4483 251.97 49.2339 254.202 46.8047C256.486 44.3255 257.627 41.1627 257.627 37.3171C257.627 33.4711 256.486 30.3335 254.202 27.9047C251.97 25.4251 249.053 24.1856 245.45 24.1856C241.847 24.1856 238.904 25.4001 236.617 27.8289Z" fill="white"/>
<path d="M280.552 55.9115H273.395V24.7907H266.09V18.7944H273.395V7.18115H280.552V18.7944H287.86V24.7907H280.552V55.9115Z" fill="white"/>
<path d="M299.152 55.8361H291.999V0.046875H299.152V24.4877C300.372 22.4131 302.069 20.7686 304.251 19.554C306.434 18.3397 308.946 17.7326 311.787 17.7326C316.456 17.7326 319.96 19.0986 322.293 21.8311C324.678 24.5638 325.869 28.3587 325.869 33.217V55.9122H318.714V34.8107C318.714 27.777 315.746 24.2603 309.809 24.2603C306.46 24.2603 303.846 25.3481 301.971 27.5242C300.092 29.6495 299.152 32.3565 299.152 35.6458V55.8361Z" fill="white"/>
</g>
<defs>
<clipPath id="clip0_3_1220">
<rect width="326" height="57" fill="white"/>
</clipPath>
</defs>
</svg>
